<?xml version="1.0" encoding="utf-8"?>
<!-- Generator: Adobe Illustrator 26.0.0, SVG Export Plug-In . SVG Version: 6.00 Build 0)  -->
<svg version="1.1" id="Capa_1" xmlns="http://www.w3.org/2000/svg" xmlns:xlink="http://www.w3.org/1999/xlink" x="0px" y="0px"
	 viewBox="0 0 48 48" style="enable-background:new 0 0 48 48;" xml:space="preserve">
<style type="text/css">
	.st0{enable-background:new    ;}
</style>
<g class="st0">
	<path d="M4.3,31.4c-1.4-0.7-2.4-1.8-3.2-3.1C0.4,27.1,0,25.6,0,24c0-1.6,0.4-3.1,1.2-4.4c0.8-1.3,1.8-2.3,3.2-3.1s2.9-1.1,4.5-1.1
		c1.4,0,2.6,0.2,3.7,0.7c1.1,0.5,2.1,1.2,2.8,2.1l-2,1.9c-1.2-1.3-2.7-1.9-4.4-1.9c-1.1,0-2.2,0.2-3.1,0.7c-0.9,0.5-1.6,1.2-2.1,2.1
		s-0.8,1.9-0.8,3c0,1.1,0.3,2.1,0.8,3s1.2,1.6,2.1,2.1c0.9,0.5,1.9,0.7,3.1,0.7c1.8,0,3.2-0.7,4.4-2l2,1.9c-0.8,0.9-1.7,1.6-2.9,2.1
		c-1.1,0.5-2.4,0.7-3.7,0.7C7.2,32.5,5.7,32.2,4.3,31.4z"/>
	<path d="M18.4,15.7h3.1v16.6h-3.1V15.7z"/>
	<path d="M26,15.7h3.1v16.6H26V15.7z"/>
	<path d="M35.4,30.6c-1.3-1.3-1.9-3.1-1.9-5.5v-9.4h3.1V25c0,3.3,1.4,4.9,4.2,4.9c2.8,0,4.2-1.6,4.2-4.9v-9.3h3v9.4
		c0,2.4-0.6,4.3-1.9,5.5c-1.3,1.3-3.1,1.9-5.4,1.9C38.4,32.5,36.7,31.9,35.4,30.6z"/>
</g>
</svg>
