<?xml version="1.0" encoding="utf-8"?>
<!-- Generator: Adobe Illustrator 26.0.0, SVG Export Plug-In . SVG Version: 6.00 Build 0)  -->
<svg version="1.1" id="Capa_1" xmlns="http://www.w3.org/2000/svg" xmlns:xlink="http://www.w3.org/1999/xlink" x="0px" y="0px"
	 viewBox="0 0 641.4 512" style="enable-background:new 0 0 641.4 512;" xml:space="preserve">
<style type="text/css">
	.st0{fill:#1D1D1B;}
</style>
<path d="M385.9,233.4l-108-31.6c-12.5-3.6-21.2-15.3-21.2-28.3c0-16.3,13.2-29.5,29.5-29.5h66.3c12.2,0,24.2,3.7,34.2,10.5
	c6.1,4.1,14.3,3.1,19.5-2l34.8-34c7.1-6.9,6.1-18.4-1.8-24.5c-24.5-19.2-55.1-29.9-86.5-30V16c0-8.8-7.2-16-16-16h-32
	c-8.8,0-16,7.2-16,16v48h-2.5c-63.7,0-114.9,54.7-109,119.6c4.2,46.1,39.4,83.6,83.8,96.6l102.5,30c12.5,3.7,21.2,15.3,21.2,28.3
	c0,16.3-13.2,29.5-29.5,29.5h-66.3c-12.2,0-24.2-3.7-34.2-10.5c-6.1-4.1-14.3-3.1-19.5,2l-34.8,34c-7.1,6.9-6.1,18.4,1.8,24.5
	c24.5,19.2,55.1,29.9,86.5,30v48c0,8.8,7.2,16,16,16h32c8.8,0,16-7.2,16-16v-48.2c46.6-0.9,90.3-28.6,105.7-72.7
	C479.9,313.5,443.8,250.3,385.9,233.4L385.9,233.4z"/>
<g>
	<path class="st0" d="M156.3,128.5c3.4-9.8,7.9-19.1,13.3-27.8L43.1,3c-6.4-4.9-15.5-3.7-20.5,2.6L3,31c-4.9,6.4-3.7,15.5,2.6,20.5
		l143.5,110.8C150.1,150.8,152.5,139.5,156.3,128.5z"/>
	<path class="st0" d="M635.8,460.5L492.2,349.7c-1,11.6-3.4,23.2-7.4,34.6c-3.3,9.5-7.7,18.5-13.1,26.9L598.4,509
		c6.4,4.9,15.5,3.7,20.5-2.6l19.6-25.3C643.3,474.6,642.1,465.4,635.8,460.5z"/>
</g>
</svg>
