<?xml version="1.0" encoding="utf-8"?>
<!-- Generator: Adobe Illustrator 26.0.0, SVG Export Plug-In . SVG Version: 6.00 Build 0)  -->
<svg version="1.1" id="Capa_1" xmlns="http://www.w3.org/2000/svg" xmlns:xlink="http://www.w3.org/1999/xlink" x="0px" y="0px"
	 viewBox="0 0 512 512" style="enable-background:new 0 0 512 512;" xml:space="preserve">
<g>
	<path d="M195,275.3c-4.8,0-8.5,1.1-12.1,2.3c-4.3,1.4-8.8,2.8-16.5,2.8c-7.7,0-12.1-1.4-16.5-2.8c-3.6-1.1-7.3-2.3-12.1-2.3
		c-26.2,0-47.6,21.4-47.6,47.6v8.2c0,11.1,9.1,20.2,20.2,20.2h112.1c11.1,0,20.2-9.1,20.2-20.2v-8.2
		C242.7,296.7,221.3,275.3,195,275.3z"/>
	<path d="M166.5,270.1c27.9,0,50.7-22.7,50.7-50.7c0-27.9-22.7-50.7-50.7-50.7s-50.7,22.7-50.7,50.7S138.5,270.1,166.5,270.1z"/>
</g>
<path d="M464,128H272l-54.6-54.6c-6-6-14.1-9.4-22.6-9.4H48C21.5,64,0,85.5,0,112v288c0,26.5,21.5,48,48,48h416
	c26.5,0,48-21.5,48-48V176C512,149.5,490.5,128,464,128z M464,400H48V112h140.1l54.6,54.6c6,6,14.1,9.4,22.6,9.4H464V400z"/>
</svg>
