<?xml version="1.0" encoding="utf-8"?>
<!-- Generator: Adobe Illustrator 26.0.0, SVG Export Plug-In . SVG Version: 6.00 Build 0)  -->
<svg version="1.1" id="Capa_1" xmlns="http://www.w3.org/2000/svg" xmlns:xlink="http://www.w3.org/1999/xlink" x="0px" y="0px"
	 viewBox="0 0 48 48" style="enable-background:new 0 0 48 48;" xml:space="preserve">
<g>
	<path d="M46.3,9h-1.9h-1.7h-6.1h-3.2h-0.5c-1,0-1.7,0.7-1.7,1.7v2.8c0,1,0.7,1.7,1.7,1.7h1.3h2.4h6.1h3.3h0.4c1,0,1.7-0.7,1.7-1.7
		v-2.8C48,9.7,47.3,9,46.3,9z"/>
	<path d="M21.8,9.4h-6.4L0,43.6h8l3.4-7.8H26l3.4,7.8h8.1L21.8,9.4z M14.3,29.1l4.4-10l4.4,10H14.3z"/>
</g>
</svg>
