<?xml version="1.0" encoding="utf-8"?>
<!-- Generator: Adobe Illustrator 26.0.0, SVG Export Plug-In . SVG Version: 6.00 Build 0)  -->
<svg version="1.1" id="Capa_1" xmlns="http://www.w3.org/2000/svg" xmlns:xlink="http://www.w3.org/1999/xlink" x="0px" y="0px"
	 viewBox="0 0 48 48" style="enable-background:new 0 0 48 48;" xml:space="preserve">
<style type="text/css">
	.st0{fill:#1D1D1B;}
</style>
<g id="Grupo_4376">
	<path id="Trazado_2304" class="st0" d="M7.1,21.6c-0.7-0.6-1.5-0.9-2.4-1c-1.8,0-3.2,1.3-3.3,3.1c0,0.1,0,0.2,0,0.3
		c-0.1,1.7,1.2,3.1,2.8,3.2c0.1,0,0.3,0,0.4,0c0.8,0,1.6-0.3,2.2-0.8v-1.8H4.4v-1.3h3.8v3.6c-0.9,1-2.1,1.6-3.5,1.5
		c-2.4,0.2-4.4-1.5-4.7-3.9c0-0.2,0-0.4,0-0.7c-0.2-2.5,1.7-4.6,4.2-4.7c0.2,0,0.3,0,0.5,0c1.2,0,2.4,0.5,3.3,1.3L7.1,21.6z"/>
	<path id="Trazado_2305" class="st0" d="M18.4,24c0,2.5-2,4.6-4.5,4.6c-2.5,0-4.6-2-4.6-4.5c-0.1-2.5,1.8-4.5,4.2-4.7
		c0.1,0,0.2,0,0.4,0c2.4-0.1,4.4,1.8,4.5,4.2C18.4,23.7,18.4,23.9,18.4,24z M13.8,27.3c1.6,0.1,3.1-1.2,3.2-2.8c0-0.2,0-0.3,0-0.5
		c0.1-1.7-1.1-3.2-2.9-3.4c-0.1,0-0.2,0-0.3,0c-1.8,0.1-3.3,1.6-3.2,3.5C10.8,25.8,12.1,27.2,13.8,27.3L13.8,27.3z"/>
	<path id="Trazado_2306" class="st0" d="M24,28.6h-1.5l-3.8-9.2h1.7l2.9,7.5l2.9-7.5h1.6L24,28.6z"/>
	<path id="Trazado_2307" class="st0" d="M28.7,27.7c0,0.5-0.4,0.9-0.9,1c-0.5,0-0.9-0.4-1-0.9c0,0,0,0,0-0.1c0-0.5,0.5-0.9,1-0.9
		C28.3,26.8,28.7,27.2,28.7,27.7z"/>
	<path id="Trazado_2308" class="st0" d="M37.7,27.3c-0.9,0.9-2.1,1.4-3.4,1.3c-2.4,0.2-4.5-1.6-4.7-4c0-0.2,0-0.4,0-0.5
		c-0.1-2.5,1.8-4.6,4.2-4.7c0.2,0,0.3,0,0.5,0c1.2,0,2.4,0.5,3.3,1.4l-1,0.9c-0.6-0.6-1.4-0.9-2.3-0.9c-1.7-0.1-3.2,1.2-3.3,3
		c0,0.1,0,0.2,0,0.4c-0.1,1.7,1.2,3.2,2.9,3.3c0.1,0,0.3,0,0.4,0c0.9,0,1.7-0.4,2.4-1L37.7,27.3z"/>
	<path id="Trazado_2309" class="st0" d="M48,24c0,2.5-1.9,4.6-4.5,4.6c-2.5,0-4.6-1.9-4.6-4.5c0-0.1,0-0.1,0-0.2
		c-0.1-2.5,1.8-4.5,4.2-4.7c0.1,0,0.2,0,0.3,0c2.4-0.1,4.4,1.8,4.5,4.2C48,23.7,48,23.9,48,24z M43.5,27.3c1.6,0.1,3-1.2,3.1-2.8
		c0-0.2,0-0.3,0-0.5c0.1-1.7-1.1-3.2-2.8-3.4c-0.1,0-0.2,0-0.3,0c-1.8,0.1-3.2,1.6-3.2,3.5C40.4,25.9,41.7,27.2,43.5,27.3L43.5,27.3
		z"/>
</g>
</svg>
