<?xml version="1.0" encoding="utf-8"?>
<!-- Generator: Adobe Illustrator 26.0.0, SVG Export Plug-In . SVG Version: 6.00 Build 0)  -->
<svg version="1.1" id="Capa_1" xmlns="http://www.w3.org/2000/svg" xmlns:xlink="http://www.w3.org/1999/xlink" x="0px" y="0px"
	 viewBox="0 0 512 512" style="enable-background:new 0 0 512 512;" xml:space="preserve">
<path d="M297.3,320h-82.6c-12.5,0-22.7-10.2-22.7-22.7v-82.6c0-12.5,10.2-22.7,22.7-22.7h82.6c12.5,0,22.7,10.2,22.7,22.7v82.6
	C320,309.8,309.8,320,297.3,320z M489.3,320h-82.6c-12.5,0-22.7-10.2-22.7-22.7v-82.6c0-12.5,10.2-22.7,22.7-22.7h82.6
	c12.5,0,22.7,10.2,22.7,22.7v82.6C512,309.8,501.8,320,489.3,320z M105.3,320H22.7C10.2,320,0,309.8,0,297.3v-82.6
	C0,202.2,10.2,192,22.7,192h82.6c12.5,0,22.7,10.2,22.7,22.7v82.6C128,309.8,117.8,320,105.3,320z"/>
<path d="M297.3,320h-82.6c-12.5,0-22.7-10.2-22.7-22.7v-82.6c0-12.5,10.2-22.7,22.7-22.7h82.6c12.5,0,22.7,10.2,22.7,22.7v82.6
	C320,309.8,309.8,320,297.3,320z M489.3,320h-82.6c-12.5,0-22.7-10.2-22.7-22.7v-82.6c0-12.5,10.2-22.7,22.7-22.7h82.6
	c12.5,0,22.7,10.2,22.7,22.7v82.6C512,309.8,501.8,320,489.3,320z M105.3,320H22.7C10.2,320,0,309.8,0,297.3v-82.6
	C0,202.2,10.2,192,22.7,192h82.6c12.5,0,22.7,10.2,22.7,22.7v82.6C128,309.8,117.8,320,105.3,320z"/>
<path d="M297.3,128h-82.6c-12.5,0-22.7-10.2-22.7-22.7V22.7C192,10.2,202.2,0,214.7,0h82.6C309.8,0,320,10.2,320,22.7v82.6
	C320,117.8,309.8,128,297.3,128z M489.3,128h-82.6c-12.5,0-22.7-10.2-22.7-22.7V22.7C384,10.2,394.2,0,406.7,0h82.6
	C501.8,0,512,10.2,512,22.7v82.6C512,117.8,501.8,128,489.3,128z M105.3,128H22.7C10.2,128,0,117.8,0,105.3V22.7
	C0,10.2,10.2,0,22.7,0h82.6C117.8,0,128,10.2,128,22.7v82.6C128,117.8,117.8,128,105.3,128z"/>
<path d="M297.3,512h-82.6c-12.5,0-22.7-10.2-22.7-22.7v-82.6c0-12.5,10.2-22.7,22.7-22.7h82.6c12.5,0,22.7,10.2,22.7,22.7v82.6
	C320,501.8,309.8,512,297.3,512z M489.3,512h-82.6c-12.5,0-22.7-10.2-22.7-22.7v-82.6c0-12.5,10.2-22.7,22.7-22.7h82.6
	c12.5,0,22.7,10.2,22.7,22.7v82.6C512,501.8,501.8,512,489.3,512z M105.3,512H22.7C10.2,512,0,501.8,0,489.3v-82.6
	C0,394.2,10.2,384,22.7,384h82.6c12.5,0,22.7,10.2,22.7,22.7v82.6C128,501.8,117.8,512,105.3,512z"/>
</svg>
