<svg xmlns="http://www.w3.org/2000/svg" width="24" height="24" viewBox="0 0 24 24"><g fill="none" stroke="#ffffff" stroke-linecap="round" stroke-linejoin="round" stroke-width="1.5" color="#ffffff"><path d="M4 18.646V8.054c0-2.854 0-4.28.879-5.167C5.757 2 7.172 2 10 2h4c2.828 0 4.243 0 5.121.887C20 3.773 20 5.2 20 8.054v10.592c0 1.511 0 2.267-.462 2.565c-.755.486-1.922-.534-2.509-.904c-.485-.306-.727-.458-.997-.467c-.29-.01-.537.137-1.061.467l-1.911 1.205c-.516.325-.773.488-1.06.488s-.544-.163-1.06-.488l-1.91-1.205c-.486-.306-.728-.458-.997-.467c-.291-.01-.538.137-1.062.467c-.587.37-1.754 1.39-2.51.904C4 20.913 4 20.158 4 18.646M16 6H8m2 4H8"/><path d="M14.5 9.875c-.828 0-1.5.588-1.5 1.313c0 .724.672 1.312 1.5 1.312s1.5.588 1.5 1.313c0 .724-.672 1.312-1.5 1.312m0-5.25c.653 0 1.209.365 1.415.875M14.5 9.875V9m0 6.125c-.653 0-1.209-.365-1.415-.875m1.415.875V16"/></g></svg>