<svg xmlns="http://www.w3.org/2000/svg" width="24" height="24" viewBox="0 0 24 24"><mask id="IconifyId19a832e100e13e3c13"><g fill="none" stroke="#fff" stroke-linecap="round" stroke-linejoin="round" stroke-width="2"><path stroke-dasharray="64" stroke-dashoffset="64" d="M13.5 3l5.5 5.5v11.5c0 0.55 -0.45 1 -1 1h-12c-0.55 0 -1 -0.45 -1 -1v-16c0 -0.55 0.45 -1 1 -1Z"><animate fill="freeze" attributeName="stroke-dashoffset" dur="0.6s" values="64;0"/></path><path d="M14.5 3.5l2.25 2.25l2.25 2.25z" opacity="0"><animate fill="freeze" attributeName="d" begin="0.6s" dur="0.2s" values="M14.5 3.5l2.25 2.25l2.25 2.25z;M14.5 3.5l0 4.5l4.5 0z"/><set fill="freeze" attributeName="opacity" begin="0.6s" to="1"/></path><path stroke-dasharray="8" stroke-dashoffset="8" d="M9 13h6"><animate fill="freeze" attributeName="stroke-dashoffset" begin="0.8s" dur="0.2s" values="8;0"/></path><path stroke-dasharray="4" stroke-dashoffset="4" d="M9 17h3"><animate fill="freeze" attributeName="stroke-dashoffset" begin="1s" dur="0.2s" values="4;0"/></path><path fill="#000" fill-opacity="0" stroke="#000" stroke-dasharray="32" stroke-dashoffset="32" stroke-width="6" d="M18.5 14c2.48 0 4.5 2.02 4.5 4.5c0 2.48 -2.02 4.5 -4.5 4.5c-2.48 0 -4.5 -2.02 -4.5 -4.5c0 -2.48 2.02 -4.5 4.5 -4.5Z"><set fill="freeze" attributeName="fill-opacity" begin="1.2s" to="1"/><set fill="freeze" attributeName="stroke-dashoffset" begin="1.2s" to="0"/></path><path stroke-dasharray="32" stroke-dashoffset="32" d="M18.5 14c2.48 0 4.5 2.02 4.5 4.5c0 2.48 -2.02 4.5 -4.5 4.5c-2.48 0 -4.5 -2.02 -4.5 -4.5c0 -2.48 2.02 -4.5 4.5 -4.5Z"><animate fill="freeze" attributeName="stroke-dashoffset" begin="1.2s" dur="0.4s" values="32;0"/></path><path stroke-dasharray="10" stroke-dashoffset="10" d="M16 16l5 5"><animate fill="freeze" attributeName="stroke-dashoffset" begin="1.6s" dur="0.2s" values="10;0"/></path></g></mask><rect width="24" height="24" fill="#004085" mask="url(#IconifyId19a832e100e13e3c13)"/></svg>