<svg xmlns="http://www.w3.org/2000/svg" width="24" height="24" viewBox="0 0 24 24"><path fill="none" stroke="#ffffff" stroke-linecap="round" stroke-linejoin="round" stroke-width="1.5" d="M16.996 9.013h.008m0-2.004V4.505M22 6.792c0 2.646-2.24 4.792-5.004 4.792q-.488 0-.968-.09c-.23-.043-.344-.064-.425-.052c-.08.012-.194.072-.42.194a3.25 3.25 0 0 1-2.114.329c.274-.338.46-.743.543-1.177c.05-.265-.074-.523-.26-.712a4.67 4.67 0 0 1-1.36-3.284c0-2.646 2.24-4.792 5.004-4.792S22 4.146 22 6.792M7.502 22H4.718c-.323 0-.648-.046-.945-.173c-.966-.415-1.457-.964-1.685-1.307a.54.54 0 0 1 .03-.631c1.12-1.488 3.716-2.386 5.384-2.386M7.507 22h2.783c.324 0 .648-.046.945-.173c.967-.415 1.457-.964 1.686-1.307a.54.54 0 0 0-.03-.631c-1.12-1.488-3.716-2.386-5.384-2.386m2.778-5.214a2.776 2.776 0 0 1-2.778 2.772a2.776 2.776 0 0 1-2.78-2.772a2.776 2.776 0 0 1 2.78-2.773a2.776 2.776 0 0 1 2.778 2.773" color="#ffffff"/></svg>