<svg xmlns="http://www.w3.org/2000/svg" width="24" height="24" viewBox="0 0 24 24"><path fill="#004085" d="M3.596 15.192v-1.646q0-.696.36-1.197t.97-.8q1.301-.62 2.584-.988q1.282-.369 3.086-.369q1.087 0 1.975.146q.889.147 1.7.406q-.2.178-.364.388q-.165.21-.305.416q-.673-.18-1.413-.268q-.741-.088-1.593-.088q-1.592 0-2.832.318q-1.241.319-2.36.917q-.456.24-.632.504q-.176.263-.176.615v.646h7.979q-.03.244-.03.488t.01.512zm7-7.23q-1.237 0-2.119-.882t-.88-2.118t.88-2.12t2.12-.88t2.118.88t.881 2.12t-.881 2.118t-2.119.882m0-1q.825 0 1.413-.588t.587-1.412t-.587-1.413t-1.413-.587t-1.412.587t-.588 1.413t.588 1.412t1.412.588m7.27-2q0 1.237-.882 2.118t-2.119.882q-.063 0-.161-.015t-.162-.031q.54-.627.797-1.385q.257-.757.257-1.573t-.276-1.56t-.778-1.39q.081-.03.162-.038q.08-.008.161-.008q1.238 0 2.12.88t.88 2.12m.725 13.48q-1.681 0-2.866-1.185t-1.186-2.867q0-1.701 1.186-2.892t2.866-1.19q1.702 0 2.893 1.19t1.19 2.892q0 1.682-1.19 2.867t-2.893 1.185m-.579-1.615l2.795-2.8l-.546-.527l-2.248 2.229l-1.137-1.137l-.546.552z"/></svg>