<svg xmlns="http://www.w3.org/2000/svg" width="24" height="24" viewBox="0 0 24 24"><g fill="none" stroke="#004085" stroke-linecap="round" stroke-linejoin="round" stroke-width="1.5" color="#004085"><path d="m16 10l2.15.645c1.373.412 2.06.618 2.455 1.15c.395.53.395 1.248.395 2.681V22M8 9h3m-3 4h3m1 9v-3c0-.943 0-1.414-.293-1.707S10.943 17 10 17H9c-.943 0-1.414 0-1.707.293S7 18.057 7 19v3m-5 0h20"/><path d="M3 22V6.717c0-2.51 0-3.766.791-4.389s1.956-.284 4.287.392l5 1.451c1.406.408 2.109.612 2.515 1.169C16 5.896 16 6.653 16 8.169V22"/></g></svg>