<svg xmlns="http://www.w3.org/2000/svg" width="24" height="24" viewBox="0 0 24 24"><path fill="#ffffff" d="m17.371 19.827l2.84-2.796l-.626-.627l-2.214 2.183l-.955-.975l-.627.632zM6.77 8.731h10.462v-1H6.769zM18 22.116q-1.671 0-2.835-1.165Q14 19.787 14 18.116t1.165-2.836T18 14.116t2.836 1.164T22 18.116q0 1.67-1.164 2.835Q19.67 22.116 18 22.116M4 20.769V5.616q0-.672.472-1.144T5.616 4h12.769q.67 0 1.143.472q.472.472.472 1.144v5.944q-.244-.09-.484-.154q-.241-.064-.516-.1v-5.69q0-.231-.192-.424T18.384 5H5.616q-.231 0-.424.192T5 5.616V19.05h6.344q.068.41.176.802q.109.392.303.748l-.034.034l-1.135-.826l-1.346.961l-1.346-.961l-1.346.961l-1.347-.961zm2.77-4.5h4.709q.056-.275.138-.515t.192-.485H6.77zm0-3.769h7.31q.49-.387 1.05-.645q.56-.259 1.197-.355H6.769zM5 19.05V5z"/></svg>