<svg xmlns="http://www.w3.org/2000/svg" width="24" height="24" viewBox="0 0 24 24"><g fill="none" stroke="#ffffff" stroke-linecap="round" stroke-linejoin="round" stroke-width="1.5" color="#ffffff"><path d="M16.308 4.384c-.59 0-.886 0-1.155-.1l-.111-.046c-.261-.12-.47-.328-.888-.746c-.962-.962-1.443-1.443-2.034-1.488a2 2 0 0 0-.24 0c-.591.045-1.072.526-2.034 1.488c-.418.418-.627.627-.888.746l-.11.046c-.27.1-.565.1-1.156.1h-.11c-1.507 0-2.261 0-2.73.468s-.468 1.223-.468 2.73v.11c0 .59 0 .886-.1 1.155q-.022.057-.046.111c-.12.261-.328.47-.746.888c-.962.962-1.443 1.443-1.488 2.034a2 2 0 0 0 0 .24c.045.591.526 1.072 1.488 2.034c.418.418.627.627.746.888q.025.054.046.11c.1.27.1.565.1 1.156v.11c0 1.507 0 2.261.468 2.73s1.223.468 2.73.468h.11c.59 0 .886 0 1.155.1q.057.021.111.046c.261.12.47.328.888.746c.962.962 1.443 1.443 2.034 1.488q.12.009.24 0c.591-.045 1.072-.526 2.034-1.488c.418-.418.627-.626.888-.746q.054-.025.11-.046c.27-.1.565-.1 1.156-.1h.11c1.507 0 2.261 0 2.73-.468s.468-1.223.468-2.73v-.11c0-.59 0-.886.1-1.155q.021-.057.046-.111c.12-.261.328-.47.746-.888c.962-.962 1.443-1.443 1.488-2.034q.009-.12 0-.24c-.045-.591-.526-1.072-1.488-2.034c-.418-.418-.626-.627-.746-.888l-.046-.11c-.1-.27-.1-.565-.1-1.156v-.11c0-1.507 0-2.261-.468-2.73s-1.223-.468-2.73-.468z"/><path d="M15.5 12a3.5 3.5 0 1 1-7 0a3.5 3.5 0 0 1 7 0"/></g></svg>